<?xml version="1.0" encoding="utf-8"?>
<!-- Generator: Adobe Illustrator 26.0.1, SVG Export Plug-In . SVG Version: 6.00 Build 0)  -->
<svg version="1.1" id="Layer_1" xmlns="http://www.w3.org/2000/svg" xmlns:xlink="http://www.w3.org/1999/xlink" x="0px" y="0px"
	 viewBox="0 0 307.2 307.2" style="enable-background:new 0 0 307.2 307.2;" xml:space="preserve">
<style type="text/css">
	.st0{fill:#F2CA66;}
	.st1{fill:#1D1C1C;}
	.st2{fill:#FDFDFD;}
	.st3{fill:#C3C1C2;}
	.st4{fill:#EEC869;}
</style>
<g>
	<g>
		<path class="st0" d="M0,161.7c0-5.4,0-10.9,0-16.3c0.4-1.2,0.4-2.4,0.4-3.6c0.2-4.6,0.8-9.2,1.6-13.8c0.9-5.4,2.1-10.7,3.6-15.9
			c2-7.2,4.5-14.3,7.6-21.1c3.8-8.6,8.5-16.9,13.8-24.6c5.3-7.6,11.2-14.8,17.8-21.3c6-6,12.4-11.4,19.3-16.4
			C69,25.2,74,22,79.3,19.1c5.6-3.1,11.4-5.8,17.3-8.2c4.8-1.9,9.7-3.6,14.7-5c5.1-1.5,10.3-2.7,15.6-3.6c5-0.8,9.9-1.6,15-1.8
			c1,0,2,0,2.9-0.4c5.9,0,11.8,0,17.8,0c0.2,0.3,0.6,0.2,0.9,0.3c3.4,0.3,6.8,0.5,10.1,1c5.8,0.7,11.5,1.8,17.1,3.2
			c4.2,1,8.4,2.3,12.5,3.7c8.8,3,17.3,6.7,25.4,11.3c10,5.6,19.3,12.2,27.8,19.9c5.5,4.9,10.6,10.2,15.3,15.9
			c5.5,6.6,10.5,13.7,14.9,21.2c3.7,6.4,7,13,9.7,19.9c1.6,4,3.1,8.1,4.3,12.3c1.1,3.7,2.1,7.5,3,11.3c0.9,3.7,1.6,7.5,2.1,11.3
			c0.6,4.2,1.2,8.4,1.2,12.6c0,1.1,0.2,2.2,0.4,3.3c0,4.3,0,8.6,0,13c0,0.2-0.1,0.3-0.1,0.5c-0.4,5.8-0.8,11.5-1.7,17.2
			c-0.6,3.7-1.3,7.3-2.1,10.9c-1.1,5-2.6,9.9-4.2,14.7c-2.2,6.3-4.7,12.5-7.7,18.5c-3.4,6.8-7.3,13.4-11.7,19.7
			c-3.3,4.8-6.9,9.3-10.8,13.7c-6.4,7.3-13.5,13.9-21.1,19.8c-6,4.6-12.3,8.8-18.9,12.5c-4.7,2.6-9.6,5-14.5,7.2
			c-5.4,2.3-10.9,4.3-16.5,6c-3.1,0.9-6.3,1.8-9.4,2.5c-3.9,0.9-7.8,1.7-11.7,2.2c-3.6,0.5-7.2,1-10.8,1.2c-1.3,0.1-2.7,0-4,0.5
			c-5.8,0-11.5,0-17.3,0c-0.2-0.3-0.6-0.3-0.9-0.3c-5.1-0.3-10.3-0.9-15.3-1.7c-8.2-1.4-16.3-3.4-24.2-6.1
			c-8.8-3-17.3-6.8-25.4-11.3c-10.1-5.6-19.4-12.3-28-20c-5.5-5-10.7-10.4-15.4-16.1c-5.4-6.6-10.3-13.5-14.6-20.9
			c-3.6-6.2-6.8-12.6-9.4-19.3c-1.9-4.7-3.6-9.5-5.1-14.4c-1.5-5-2.7-10-3.6-15.1c-0.7-3.8-1.3-7.6-1.7-11.5c-0.2-2-0.4-4-0.5-6.1
			C0.3,163.5,0.5,162.6,0,161.7z M301.6,153.6c0-81.7-66.2-148-147.9-148C72,5.5,5.6,71.8,5.6,153.5c-0.1,81.7,66.3,148.1,148,148.1
			C235.3,301.6,301.6,235.3,301.6,153.6z"/>
		<path class="st1" d="M301.6,153.6c0,81.7-66.3,148-148.1,148c-81.7,0-148-66.4-148-148.1C5.6,71.8,72,5.5,153.7,5.6
			C235.4,5.6,301.6,71.9,301.6,153.6z M245.5,124.7c3.9,1,7.6,2.4,11,4.5c0.4,0.2,0.5,0.1,0.7-0.2c0.5-1,1-1.9,1.6-2.8
			c0.3-0.4,0.2-0.7-0.1-1.1c-1.5-1.6-3-3.1-4.9-4.1c-1.6-1-2.9-2.3-4.4-3.4c-2.6-1.8-5.4-3.1-8.4-4.1c-1.7-0.6-3.5-1-5.5-1.7
			c1.3,0,2.2,0,3.2,0c0.1,0,0.3,0.1,0.4,0.1c5.3,0.5,10.3,1.7,14.8,4.6c0.3,0.2,0.5,0.1,0.7-0.1c1.1-0.9,2.4-1.6,3.6-2.4
			c0.7-0.5,1.3-0.9,1.5-1.8c1.3-3,0.3-6.3-2.7-8.6c-1.8-1.4-3.8-2.4-5.9-3.5c-21-10.6-43.4-16-66.6-18.2c-11.2-1-22.3-1.2-33.5-0.8
			c-12.7,0.4-25.4,1.6-37.9,3.6c-16.8,2.8-33,7.3-48.6,14.2c-7,3.1-13.6,6.8-19.2,12c-1.8,1.7-2.4,3.5-2.1,5.8
			c-0.2,1.6,1,2.5,1.8,3.6c0.7,1.2,1.3,1.1,2.3,0.3c1-0.8,2.1-1.5,3.2-2.1c7.8-4.6,16-8.3,24.6-11.3c0.3-0.1,0.6-0.4,1-0.1
			c-1.9,1-3.9,2-5.8,3c-9.8,5-18.5,11.5-27.1,18.2c-1.3,1-2.2,2.2-1.7,4c-0.1,0.8,0.1,1.6,0.3,2.5c0.2,0.7,0.5,0.6,1,0.3
			c5.3-3.2,10.7-6.4,16.6-8.3c0.1,0.1,0.7,0,0.2,0.4c-0.3,0.3-0.8,0.4-1.1,0.6c-6,3.4-10.9,8.4-16.4,12.4c-0.7,0.5-1.3,1.2-1.3,2.2
			c-0.1,2.2,1,3.9,1.9,5.9c0.2-0.1,0.3-0.2,0.5-0.3c4.5-4.5,10.1-7.4,15.8-9.9c3.4-1.5,6.8-2.6,10.3-3.9c1.7-0.6,3.4-1.1,5.1-1.7
			c0.1,0.2,0.1,0.3,0,0.5c-0.7,0.3-1.4,0.6-2.1,1c-6,2.7-12,5.5-17.5,9.3c-4.6,3.2-8.9,6.7-12.5,11c-0.7,0.8-1.4,1.7-1.2,2.9
			c0.3,1.9,0.8,3.6,1.6,5.4c0.5-1.1,0.6-1.2,1.6-1.8c4.6-2.6,9.3-4.8,14.2-6.8c11.3-4.6,23.1-7.7,35-10.2c19-4,38.3-6.6,57.7-7.2
			c19.2-0.6,38.2,0.6,57,4.2c20.2,3.9,39.5,10.3,57.8,19.8c1.6,0.8,1.5,0.8,1.7-1c0,0,0-0.1,0-0.1c0.6-3.7-0.7-6.6-3.7-8.8
			c-1.3-0.9-2.5-1.8-3.9-2.6c-8.3-4.6-16.2-10-25.3-12.8c3.9,0.3,7.5,1.6,11.1,2.8c0.1,0,0.1,0.1,0.2,0.1c5.2,2,10.4,3.9,15.4,6.5
			c0.3,0.2,0.6,0.2,0.8-0.2c1.5-2.1,1.8-3.3,0.1-5.2c-1.5-2.1-3.4-3.9-5.4-5.5c-4-3.4-8.3-6.3-13.3-8.1c-2.4-0.9-4.9-1.6-7.4-2.4
			c2.9,0.1,5.8,0.5,8.6,1.1c0.2,0,0.3,0,0.5,0.1C245.3,124.6,245.4,124.6,245.5,124.7z M258.7,169.9c-0.2-2.2-0.6-4.3-1.2-6.5
			c-0.1-0.6-0.3-1.2-0.4-1.9c-0.1-1.1-0.8-1.7-1.8-2.1c-3.9-1.7-7.8-3.4-11.8-4.9c-22-8.4-44.8-12.8-68.3-14.1
			c-16.6-0.9-33.1-0.3-49.6,1.7c-11.8,1.4-23.5,3.4-35.1,6c-11.4,2.5-22.6,5.7-33.4,10.3c-4.4,1.9-4.4,1.9-5.3,6.4c0,0,0,0.1,0,0.1
			c-0.3,1.1-0.5,2.2-0.5,3.3c-0.1,0.2-0.2,0.4-0.2,0.7c-0.9,6.2-1.4,12.4-1.2,18.6c0.1,3.3,0.4,6.5,0.7,9.8c0,0.3-0.1,1,0.6,0.6
			c1.7-1,3.4-2,5.1-3c1.9-0.5,3.6-1.7,5.6-1.9c-1.8,1.5-3.7,2.7-5.3,4.3c-1.9,1.4-3.4,3.2-4.9,4.9c-0.3,0.3-0.3,0.6-0.2,1
			c0.4,1.7,0.8,3.4,1.1,5.1c0.2,0.8,0.5,0.6,0.9,0.2c1.9-1.8,4-3.5,6.1-5.1c1.5-0.9,2.9-1.9,4.4-2.8c0.1,0.1,0.1,0.1,0.2,0.2
			c-1.3,1.5-2.8,2.8-3.9,4.5c-2.3,2.5-4.1,5.3-5.8,8.1c-0.1,0.2-0.3,0.5-0.2,0.8c0.7,2.1,1.4,4.2,2.5,6.4c2-3.6,4.4-6.6,7.2-9.4
			c0.8-0.6,1.4-1.5,2.4-2c0.1,0.1,0.1,0.1,0.2,0.2c-0.6,1.1-1.5,1.9-2,3.1c-0.1,0.1-0.1,0.1-0.2,0.2c-2.4,3.8-4,7.9-5.1,12.2
			c-0.1,0.5,0.1,0.8,0.3,1.1c8,13.3,18.9,23.3,33.4,29.1c15.3,6.1,31.3,8.7,47.7,9.8c8.4,0.6,16.8,0.4,25.2,0.1
			c12.5-0.6,24.9-2.1,37.1-5.1c12.4-3,23.8-8,33.8-16c5.4-4.4,10-9.4,13.4-15.5c0.2-0.4,0.6-0.7,0.4-1.2c-0.8-1.6-0.9-3.3-1.5-4.9
			c-1.2-3.1-2.4-6.2-4.6-8.9c-0.3-0.9-1-1.5-1.3-2.5c0.6,0.4,1.2,0.9,1.7,1.3c3,3,5.7,6.3,7.9,10c0,0.1,0.1,0.1,0.3,0.1
			c0.9-1.9,1.5-3.9,2.2-5.8c0.6-1.5,0.7-2.7-0.4-4.2c-1.9-2.6-3.6-5.4-5.7-7.8c-1.1-1.3-2.3-2.6-3.6-4.1c1.8,0.4,2.9,1.7,4.3,2.4
			c2.6,2,5.1,4.1,7.6,6.4c0.4-2.1,0.8-4.1,1.2-6c0.1-0.4,0.1-0.7-0.2-1c-1.8-2.1-3.6-4.2-5.8-5.8c-1.7-1.6-3.6-2.9-5.4-4.2
			c2.1,0.4,4.1,1.4,6.1,2.2c1.8,1,3.7,2.1,5.5,3.1c0.8,0.5,0.7,0,0.8-0.6c0.8-7.2,0.7-14.4-0.1-21.6
			C259.4,173.6,259.3,171.7,258.7,169.9z M101.1,83.4c-0.2-0.3-0.4-0.4-0.5-0.6c-6.9-7.5-14.6-14-23.1-19.7
			c-3.6-2.4-7.3-4.6-11.5-5.8c-3-0.9-4.5-0.1-5.9,2.7c-1.1,2.2-1.6,4.6-2,7c-0.9,5.4-1.1,10.8-1.4,16.2c-0.3,4.9-0.3,9.7-0.2,14.6
			c0,0.8,0.1,1.2,1.1,0.7c1.5-0.8,3-1.5,4.5-2.2c0.5-0.2,0.8-0.5,0.7-1.2c-0.3-4.3-0.3-8.5-0.1-12.8c0.1-2.2,0.1-4.5,0.7-6.7
			c0.7-2.6,2.4-3.6,5-3c1.7,0.4,3.1,1.2,4.6,2.1c4.4,2.7,8.3,6,11.7,9.8c1.8,2,3.4,2.5,5.9,1.6C93.9,85,97.4,84.4,101.1,83.4z
			 M250.6,95.9c0.1-2.3,0.2-4.5,0.1-6.7c-0.3-7.7-0.6-15.4-1.8-23.1c-0.4-2.3-1-4.5-2.1-6.6c-1.3-2.4-2.8-3.1-5.5-2.4
			c-1.5,0.4-2.9,0.9-4.2,1.6c-11,5.7-20.5,13.5-28.9,22.7c-0.1,0.1-0.1,0.2-0.1,0.4c4.3,0.9,8.5,1.8,12.7,3c0.5,0.1,0.7-0.1,1-0.4
			c3.4-3.3,7.2-6.1,11-8.8c1.4-1,2.8-1.8,4.4-2.4c4-1.7,6.3-0.3,6.8,4c0,0,0,0.1,0,0.1c0.4,5.1,0.9,10.1,0.6,15.2
			c0,0.4-0.1,0.7,0.4,0.9C246.8,94.2,248.6,95.1,250.6,95.9z M64.3,86.9c0,2.4,0,4.9,0.2,7.3c0,0.6,0,1,0.9,0.6
			c6.1-2.7,12.4-5,18.9-6.9c0.9-0.3,0.7-0.6,0.2-1.1c-1.3-1.3-2.5-2.6-3.8-3.8c-3.4-3.1-6.9-6.1-11.1-8.1c-3.1-1.4-4.4-0.7-4.7,2.7
			C64.5,80.7,64.4,83.8,64.3,86.9z M223.4,85.5c0.2,0.1,0.3,0.2,0.4,0.2c6.2,1.8,12.3,3.9,18.3,6.4c0.8,0.4,0.8,0,0.8-0.7
			c0.1-3.7-0.1-7.3-0.4-11c-0.1-1.5-0.1-3-0.6-4.5c-0.4-1.4-1.1-1.9-2.6-1.6c-0.9,0.2-1.7,0.5-2.4,0.9c-4.9,2.6-9.1,6.2-13.2,9.8
			C223.6,85.2,223.5,85.3,223.4,85.5z M260.9,162.3c0.7,3,1.3,5.8,1.7,8.7c0,0.3,0.1,0.6,0.5,0.4c0.8-0.5,1.8-0.7,2.1-1.6
			c0.5-1.4,0.9-2.9,1.3-4.3c0.1-0.2,0.2-0.6-0.2-0.7C264.4,164.3,263,163,260.9,162.3z M43.2,164.3c0.4,0.7,0.7,1.1,0.9,1.5
			c0.6,0.9,1.3,1.8,2.4,2.3c0.4,0.2,0.9,0.5,1.1-0.2c0.4-1.8,0.6-3.5,1-5.4C46.7,163.1,45.5,164.9,43.2,164.3z"/>
		<path class="st2" d="M56.7,197.4c1.6-1.7,3.5-2.9,5.3-4.3c-2,0.2-3.7,1.4-5.6,1.9c-0.8-0.2-0.7-0.9-0.9-1.4
			c-2.3-7.7-3.5-15.5-3.8-23.5c0-0.6,0-1.2-0.4-1.7c0-1.1,0.2-2.2,0.5-3.3c6.6-4,13.7-6.6,21-8.5c6.7-1.7,13.5-3.2,20.3-4.8
			c10.3-2.5,20.6-4.8,31.1-5.8c5.8-0.5,11.6-0.9,17.4-1.1c9-0.2,18.1-0.2,27.1,0.2c2.8,0.1,5.7,0.1,8.5,0.2
			c5.2,0.2,10.4,0.3,15.7,0.8c4.3,0.4,8.6,0.9,12.9,1.6c6.8,1.1,13.2,3.3,19.7,5.4c8.4,2.7,16.8,5.4,25.1,8.3
			c2.2,0.8,4.5,1.5,6.7,2.2c0.6,2.1,1.1,4.3,1.2,6.5c-0.5,0.1-0.4,0.5-0.5,0.8c-0.3,5.3-1.2,10.6-2.5,15.8c-0.6,2.7-1.3,5.4-2.4,7.9
			c-2-0.7-3.9-1.8-6.1-2.2c1.9,1.4,3.8,2.6,5.4,4.2c-0.8,2.2-1.5,4.4-2.8,6.4c-1.4-0.7-2.5-2-4.3-2.4c1.3,1.5,2.5,2.8,3.6,4.1
			c-1.1,2.7-2.7,5.1-4.2,7.6c-0.6-0.4-1.2-0.9-1.7-1.3c0.2,1,1,1.6,1.3,2.5c-0.5-0.1-0.6,0.4-0.9,0.7c-3.4,4.7-7.4,9-12.1,12.5
			c-6.3,4.7-13.4,7.7-20.7,10.3c-7.1,2.5-14.4,4.4-21.9,5.7c-5.1,0.9-10.2,1.6-15.4,2c-2.5,0.2-5,0.2-7.5,0.6
			c-4.4,0.6-8.9,1.1-13.3,1.3c-6.8,0.3-13.7,0.1-20.4-0.7c-7-0.9-14-2.2-20.7-4.1c-8.5-2.5-16.7-5.7-24.4-10.1
			c-5.2-3-10.2-6.3-14.6-10.4c-2.8-2.7-5.4-5.5-7.9-8.5c0.5-1.1,1.4-2,2-3.1c0.1-0.1,0.2-0.2,0.2-0.3c-0.2-0.1-0.3-0.1-0.4,0.2
			c-0.9,0.5-1.5,1.4-2.4,2c-1.6-1.7-2.7-3.7-3.7-5.8c1.2-1.6,2.7-2.9,3.9-4.5c0.1,0,0.2-0.1,0.1-0.2c0,0-0.2,0-0.3,0
			c-1.5,0.9-2.9,1.9-4.4,2.8c-0.8-0.2-0.9-1.1-1.2-1.7C57.9,200.4,57.4,198.9,56.7,197.4z M74.3,191.5c0.3,0,0.5,0,0.5-0.1
			c0.2-0.3,0.4-0.6,0.6-0.9c2.2-3.2,5-5.7,8.6-7.3c6.3-2.8,13-3,19.6-2.2c5.3,0.6,10,2.9,14.6,5.5c2.6,1.4,5,3.1,7.5,4.7
			c1.8,1.2,3.1,0.9,4.5-0.7c0.5-0.6,0.9-1.2,1.4-1.8c2.5-3.5,5.1-7,8.5-9.7c5.9-4.8,12.5-6.9,20.1-5.6c5.1,0.9,9.3,3.6,12.9,7.2
			c2.9,2.8,5.3,6,7.6,9.2c1.9,2.5,3.2,2.7,5.7,1c0.3-0.2,0.7-0.4,1-0.7c4.6-3,9.3-5.8,14.5-7.7c6.4-2.4,13-3,19.7-1.5
			c5.5,1.2,9.6,4.5,13,8.8c1.1,1.5,2.2,3,3.3,4.5c-1.2-3.3-2.8-6.3-5-9.1c-3.2-4.1-7.2-7.1-12.4-8.1c-5.9-1.2-11.9-0.6-17.6,1.2
			c-6.5,2.1-12.4,5.4-18,9.3c-0.7,0.5-1.1,0.4-1.6-0.3c-2.6-3.6-5.3-7.1-8.6-10.1c-7.4-6.9-16-9.3-25.8-6.8
			c-6.8,1.7-12.1,5.9-16.4,11.2c-1.5,1.8-2.9,3.7-4.2,5.7c-0.5,0.8-0.9,0.8-1.7,0.3c-0.9-0.7-2-1.3-3-2c-8.6-5.6-17.8-9.3-28.4-8.4
			C85.6,178.1,78.5,182.5,74.3,191.5z M177.1,228.7c0.1-0.7-0.4-0.8-0.7-1c-2.2-1.5-4.7-2.5-7.2-3.6c-2.4-1.1-4.9-2.1-6.9-3.8
			c-3.1-2.5-5-5.7-4.8-9.8c0.1-2.3,0.1-4.6,0-6.8c0-1,0.3-1.4,1.1-1.9c2.7-1.6,5.5-3.2,8.4-4.4c0.9-0.4,1.2-0.9,1.1-1.8
			c0-4.5-3-8.2-7.5-8.9c-3-0.5-6.1-0.6-9.2-0.2c-5,0.6-8,3.7-8.5,8.5c-0.1,1.2,0.1,2,1.4,2.5c3.1,1.3,5.9,2.9,8.8,4.7
			c0.7,0.4,0.9,0.9,0.9,1.6c-0.1,3.1-0.1,6.2,0,9.4c0,1.7-0.6,3-1.6,4.2c-2.3,2.8-5.3,4.6-8.5,6.1c-2.9,1.4-5.9,2.5-8.9,4.1
			c0.5,0,0.8,0.1,1.2-0.1c2.6-0.8,5.3-1.6,7.9-2.4c4.5-1.3,8.6-3.3,11.7-6.9c0.4-0.5,0.6-0.2,0.9,0.1c2.2,2.9,5.1,4.6,8.5,5.8
			C169,225.8,173.2,226.5,177.1,228.7z M174,157c0,3.1,2.3,4.9,5.2,4.6c4.4-0.4,8.1-2.3,11-5.6c1.8-2.1,1.7-4.8-0.4-6.7
			c-1.8-1.7-4-1.8-6.3-1.3c-2.5,0.6-4.7,1.9-6.4,3.8C175.5,153.4,174,155.1,174,157z M131.1,161.5c0.2,0,0.5,0,0.7,0
			c2.6,0.3,5.5-2.8,4.1-5.8c-0.4-0.9-0.9-1.8-1.5-2.6c-2.8-3.3-6-5.6-10.6-5.3c-2.1,0.1-3.7,1.1-4.6,3c-0.9,1.7-0.5,3.4,0.6,4.8
			C122.6,159.4,126.5,161.1,131.1,161.5z M128.7,174.4c-6.3-12.6-24.2-18-32.9-14.4C106.8,164.8,117.7,169.6,128.7,174.4z
			 M213.8,160c-8.8-4.5-30.9,5.1-33.1,14.5C191.8,169.6,202.8,164.8,213.8,160z M238.1,194.7L238.1,194.7L238.1,194.7L238.1,194.7z"
			/>
		<path class="st2" d="M40.8,157.2c-0.2-1.2,0.5-2,1.2-2.9c3.6-4.3,7.9-7.8,12.5-11c5.5-3.8,11.5-6.6,17.5-9.3
			c0.7-0.3,1.4-0.6,2.1-1c0.9-0.1,1.7-0.6,2.5-1.2c-0.9,0.1-1.7,0.3-2.5,0.7c-1.7,0.6-3.4,1.1-5.1,1.7c0-0.3,0.2-0.4,0.4-0.5
			c2.3-1.2,4.7-2.4,7-3.7c0.6-0.3,1.3-0.6,1.9-0.9c-0.3-0.1-0.6-0.1-0.9,0c-4.2,0.7-8.2,1.8-12.3,3c-6.3,1.8-12.6,3.9-18.5,7
			c-2.1,1.1-4.1,2.3-6.1,3.5c0.1-1,0.6-1.7,1.3-2.2c5.6-4,10.4-9,16.4-12.4c0.4-0.2,0.8-0.4,1.1-0.6c0.4-0.4-0.1-0.3-0.2-0.4
			c0-0.4,0.3-0.5,0.5-0.7c1.1-1.1,2.7-1.5,3.6-2.8c0.1,0,0.3,0,0.4-0.1c0,0-0.1-0.1-0.1-0.1c-0.1,0.1-0.2,0.1-0.4,0.2
			c-0.4,0.1-0.8,0.1-1.2,0.2c-7.3,2.1-14.5,4.7-20.9,8.9c-0.6-1.8,0.3-3,1.7-4c8.6-6.7,17.4-13.2,27.1-18.2c1.9-1,3.9-2,5.8-3
			c0,0,0,0,0,0c0.1,0,0.3,0,0.4-0.1c1.5-0.3,2.5-1.6,3.9-2.3c-2.4-0.1-4.8,0.2-7.2,0.6c-8.5,1.3-16.5,4.2-24.1,8.2
			c-1.9,1-3.7,2.4-5.7,3.2c-0.3-2.3,0.3-4.1,2.1-5.8c5.6-5.3,12.2-8.9,19.2-12c15.5-7,31.8-11.5,48.6-14.2
			c12.6-2.1,25.2-3.2,37.9-3.6c11.2-0.4,22.4-0.2,33.5,0.8c23.3,2.1,45.6,7.6,66.6,18.2c2,1,4.1,2,5.9,3.5c2.9,2.3,3.9,5.5,2.7,8.6
			c-5.5-1.8-11.1-3.3-16.8-4c-3.6-0.4-7.2-0.5-10.9-0.3c-1.6,0.1-3.2,0.2-4.9,0.8c4.1,0.5,7.8,1.6,11.4,3c-0.9,0-1.9,0-3.2,0
			c2.1,0.6,3.8,1.1,5.5,1.7c3,1,5.8,2.2,8.4,4.1c1.5,1.1,2.8,2.4,4.4,3.4c-0.5,0-1,0-1.4,0c-6.2-0.8-12.3-1.7-18.5-1.1
			c-1.2,0.1-2.5,0.2-3.7,0.4c3.8,1,7.5,2,11.2,3c1.2,0.3,2.5,0.3,3.4,1.4c-2.9-0.6-5.7-1-8.6-1.1c2.5,0.8,5,1.5,7.4,2.4
			c5,1.8,9.3,4.8,13.3,8.1c2,1.7,3.9,3.4,5.4,5.5c-0.9-0.1-1.8-0.5-2.7-0.8c-5.8-2.2-11.6-4.2-17.7-5.4c-2.4-0.4-4.9-0.9-7.4-0.8
			c3.1,1.2,6,2.5,8.9,4c0.8,0.4,1.9,0.6,2.3,1.6c-3.6-1.2-7.2-2.5-11.1-2.8c9.2,2.9,17.1,8.2,25.3,12.8c1.4,0.8,2.6,1.7,3.9,2.6
			c3,2.2,4.2,5.1,3.7,8.8c-0.6-0.1-1-0.5-1.4-0.9c-4.2-3.2-8.6-6-13.4-8.4c-5.5-2.7-11.2-4.8-17-6.8c-6.3-2.1-12.6-4.2-19-5.9
			c-8.7-2.3-17.6-3.8-26.6-4.8c-6.2-0.7-12.4-1.2-18.6-1.4c-9.2-0.2-18.4-0.3-27.6,0.4c-3.7,0.3-7.4,0.4-11.1,0.8
			c-5.9,0.6-11.8,1.4-17.7,2.1c-6.8,0.8-13.5,1.9-20.2,3.4c-11.1,2.4-22,5.6-32.6,9.7C55.1,150.8,47.7,153.4,40.8,157.2z
			 M161.8,86.3c-18,0-34,1.4-49.9,4.4c-5.6,1-11.2,2.2-16.7,3.7c-5.5,1.5-7.5,4.1-7.5,9.7c0.1,5.2,0.4,10.4,0.7,15.6
			c0.2,3.1,0.3,6.3,0.8,9.4c0.9,5.1,3.8,7.3,8.9,6.8c4.8-0.5,9.6-1.6,14.4-2.6c8.1-1.7,16.2-3.3,24.5-3.9c9.7-0.8,19.5-1.1,29.2-0.8
			c8.3,0.3,16.6,1,24.8,2.1c7.2,1,14.4,2.2,21.5,3.5c2.6,0.5,4.3-0.4,5.7-2.6c1.4-2.4,1.9-5,2-7.7c0.2-8,0.2-16.1-0.4-24.1
			c-0.4-5.1-2.5-7.6-7.3-9c-1.9-0.5-3.8-0.8-5.8-1.1c-3.8-0.6-7.6-0.6-11.3-1.1C183.6,87.1,171.7,86.3,161.8,86.3z M77.3,131.6
			c-0.1,0-0.1,0-0.2,0c0,0,0,0.1,0,0.1C77.2,131.7,77.3,131.7,77.3,131.6z"/>
		<path class="st3" d="M64.7,212.5c2.5,3,5.1,5.9,7.9,8.5c4.4,4.1,9.3,7.5,14.6,10.4c7.7,4.4,15.9,7.6,24.4,10.1
			c6.8,2,13.7,3.3,20.7,4.1c6.8,0.8,13.6,1,20.4,0.7c4.5-0.2,8.9-0.7,13.3-1.3c2.5-0.3,5-0.4,7.5-0.6c5.2-0.4,10.3-1.1,15.4-2
			c7.4-1.3,14.8-3.2,21.9-5.7c7.3-2.6,14.4-5.6,20.7-10.3c4.7-3.5,8.7-7.7,12.1-12.5c0.2-0.3,0.3-0.8,0.9-0.7
			c2.1,2.7,3.4,5.8,4.6,8.9c0.6,1.6,0.8,3.3,1.5,4.9c0.2,0.5-0.2,0.8-0.4,1.2c-3.4,6.1-8,11.2-13.4,15.5c-10,8.1-21.4,13-33.8,16
			c-12.2,3-24.6,4.5-37.1,5.1c-8.4,0.4-16.8,0.5-25.2-0.1c-16.3-1.1-32.4-3.7-47.7-9.8c-14.5-5.8-25.4-15.8-33.4-29.1
			c-0.2-0.3-0.4-0.6-0.3-1.1c1.1-4.3,2.6-8.5,5.1-12.2C64.5,212.6,64.6,212.5,64.7,212.5z"/>
		<path class="st3" d="M40.8,157.2c6.9-3.8,14.3-6.4,21.6-9.2c10.6-4.1,21.4-7.4,32.6-9.7c6.7-1.4,13.4-2.5,20.2-3.4
			c5.9-0.7,11.8-1.5,17.7-2.1c3.7-0.4,7.4-0.5,11.1-0.8c9.2-0.7,18.4-0.6,27.6-0.4c6.2,0.1,12.4,0.7,18.6,1.4c9,1,17.9,2.5,26.6,4.8
			c6.4,1.7,12.7,3.8,19,5.9c5.8,2,11.5,4.1,17,6.8c4.8,2.3,9.2,5.2,13.4,8.4c0.4,0.3,0.8,0.7,1.4,0.9c0,0,0,0.1,0,0.1
			c-0.1,1.8-0.1,1.8-1.7,1c-18.3-9.5-37.6-15.9-57.8-19.8c-18.8-3.6-37.9-4.9-57-4.2c-19.5,0.6-38.7,3.2-57.7,7.2
			c-11.9,2.5-23.7,5.6-35,10.2c-4.9,2-9.6,4.2-14.2,6.8c-1.1,0.6-1.1,0.6-1.6,1.8C41.6,160.8,41.1,159,40.8,157.2z"/>
		<path class="st3" d="M257.4,163.4c-2.2-0.7-4.5-1.5-6.7-2.2c-8.3-2.9-16.7-5.6-25.1-8.3c-6.5-2.1-13-4.3-19.7-5.4
			c-4.3-0.7-8.6-1.3-12.9-1.6c-5.2-0.4-10.4-0.6-15.7-0.8c-2.8-0.1-5.7-0.1-8.5-0.2c-9-0.4-18.1-0.3-27.1-0.2
			c-5.8,0.1-11.6,0.5-17.4,1.1c-10.6,0.9-20.9,3.3-31.1,5.8c-6.7,1.6-13.5,3.1-20.3,4.8c-7.4,1.9-14.5,4.5-21,8.5c0,0,0-0.1,0-0.1
			c0.8-4.5,0.8-4.5,5.3-6.4c10.8-4.6,22-7.7,33.4-10.3c11.6-2.6,23.3-4.6,35.1-6c16.5-1.9,33-2.6,49.6-1.7
			c23.4,1.3,46.3,5.7,68.3,14.1c4,1.5,7.9,3.2,11.8,4.9c1,0.4,1.7,1,1.8,2.1C257.1,162.2,257.3,162.8,257.4,163.4z"/>
		<path class="st2" d="M101.1,83.4c-3.6,0.9-7.2,1.6-10.6,2.7c-2.5,0.9-4.1,0.4-5.9-1.6c-3.4-3.8-7.3-7.1-11.7-9.8
			c-1.4-0.9-2.9-1.7-4.6-2.1c-2.6-0.6-4.3,0.4-5,3c-0.6,2.2-0.6,4.4-0.7,6.7c-0.2,4.3-0.2,8.6,0.1,12.8c0,0.7-0.2,0.9-0.7,1.2
			c-1.5,0.7-3.1,1.4-4.5,2.2c-0.9,0.5-1,0.1-1.1-0.7c-0.1-4.9-0.1-9.8,0.2-14.6c0.4-5.4,0.5-10.9,1.4-16.2c0.4-2.4,0.9-4.8,2-7
			c1.4-2.8,2.9-3.5,5.9-2.7c4.2,1.2,7.9,3.4,11.5,5.8c8.4,5.7,16.2,12.2,23.1,19.7C100.7,83,100.9,83.2,101.1,83.4z"/>
		<path class="st2" d="M250.6,95.9c-1.9-0.9-3.7-1.7-5.5-2.5c-0.4-0.2-0.4-0.5-0.4-0.9c0.3-5.1-0.2-10.1-0.6-15.2c0,0,0-0.1,0-0.1
			c-0.5-4.3-2.9-5.7-6.8-4c-1.6,0.7-3,1.5-4.4,2.4c-3.8,2.8-7.7,5.5-11,8.8c-0.3,0.3-0.5,0.6-1,0.4c-4.2-1.2-8.4-2.1-12.7-3
			c0.1-0.2,0.1-0.3,0.1-0.4c8.4-9.2,17.8-16.9,28.9-22.7c1.3-0.7,2.8-1.2,4.2-1.6c2.6-0.7,4.2,0,5.5,2.4c1.1,2.1,1.7,4.3,2.1,6.6
			c1.2,7.6,1.5,15.3,1.8,23.1C250.7,91.4,250.7,93.6,250.6,95.9z"/>
		<path class="st3" d="M64.3,86.9c0.1-3.1,0.2-6.1,0.5-9.2c0.3-3.3,1.6-4.1,4.7-2.7c4.2,2,7.7,4.9,11.1,8.1c1.3,1.2,2.6,2.5,3.8,3.8
			c0.5,0.5,0.7,0.8-0.2,1.1c-6.4,1.9-12.7,4.2-18.9,6.9c-0.8,0.4-0.8,0-0.9-0.6C64.3,91.8,64.3,89.3,64.3,86.9z"/>
		<path class="st3" d="M223.4,85.5c0.1-0.2,0.2-0.3,0.3-0.4c4.2-3.6,8.4-7.2,13.2-9.8c0.8-0.4,1.6-0.8,2.4-0.9
			c1.5-0.3,2.1,0.2,2.6,1.6c0.5,1.5,0.4,3,0.6,4.5c0.3,3.7,0.5,7.3,0.4,11c0,0.6,0,1-0.8,0.7c-6-2.5-12.1-4.6-18.3-6.4
			C223.7,85.7,223.6,85.6,223.4,85.5z"/>
		<path class="st3" d="M43.1,116.9c2-0.8,3.8-2.2,5.7-3.2c7.6-4,15.6-6.9,24.1-8.2c2.4-0.4,4.8-0.7,7.2-0.6c-1.3,0.7-2.3,2-3.9,2.3
			c-0.1-0.2-0.2-0.2-0.4-0.2c-0.1,0-0.2,0.1-0.1,0.2c0,0,0,0,0,0c-0.4-0.3-0.7,0-1,0.1c-8.5,3-16.8,6.6-24.6,11.3
			c-1.1,0.7-2.2,1.3-3.2,2.1c-0.9,0.8-1.5,0.9-2.3-0.3C44.2,119.4,42.9,118.5,43.1,116.9z"/>
		<path class="st3" d="M40.6,142.4c2-1.2,4.1-2.4,6.1-3.5c5.9-3,12.1-5.2,18.5-7c4.1-1.2,8.1-2.3,12.3-3c0.3,0,0.5-0.1,0.9,0
			c-0.6,0.3-1.3,0.6-1.9,0.9c-2.3,1.2-4.7,2.4-7,3.7c-0.2,0.1-0.4,0.3-0.4,0.5c-3.4,1.3-6.9,2.4-10.3,3.9
			c-5.8,2.5-11.3,5.4-15.8,9.9c-0.1,0.1-0.2,0.2-0.5,0.3C41.7,146.4,40.5,144.6,40.6,142.4z"/>
		<path class="st3" d="M238.5,111.8c-3.6-1.4-7.4-2.5-11.4-3c1.7-0.6,3.3-0.7,4.9-0.8c3.6-0.2,7.2-0.2,10.9,0.3
			c5.8,0.7,11.3,2.2,16.8,4c-0.2,0.9-0.8,1.3-1.5,1.8c-1.2,0.8-2.5,1.4-3.6,2.4c-0.2,0.2-0.4,0.3-0.7,0.1c-4.5-2.9-9.6-4-14.8-4.6
			C238.8,112,238.7,111.9,238.5,111.8z"/>
		<path class="st3" d="M244.7,124.5c-0.9-1-2.3-1-3.4-1.4c-3.7-1.1-7.4-2-11.2-3c1.2-0.1,2.5-0.3,3.7-0.4c6.2-0.6,12.4,0.4,18.5,1.1
			c0.5,0.1,1,0,1.4,0c1.9,1,3.4,2.6,4.9,4.1c0.3,0.3,0.4,0.6,0.1,1.1c-0.6,0.9-1.1,1.9-1.6,2.8c-0.2,0.3-0.3,0.5-0.7,0.2
			c-3.4-2.1-7.1-3.5-11-4.5c-0.1-0.1-0.1-0.2-0.2-0.1C245.1,124.5,244.9,124.5,244.7,124.5z"/>
		<path class="st3" d="M245.7,138.2c-0.4-1-1.5-1.2-2.3-1.6c-2.9-1.5-5.8-2.9-8.9-4c2.5-0.1,5,0.3,7.4,0.8
			c6.1,1.1,11.9,3.1,17.7,5.4c0.9,0.3,1.7,0.7,2.7,0.8c1.7,1.9,1.3,3.1-0.1,5.2c-0.2,0.3-0.5,0.3-0.8,0.2c-5-2.6-10.2-4.5-15.4-6.5
			C245.8,138.3,245.8,138.2,245.7,138.2z"/>
		<path class="st3" d="M253.4,194.4c1.1-2.5,1.7-5.2,2.4-7.9c1.3-5.2,2.1-10.5,2.5-15.8c0-0.3-0.1-0.8,0.5-0.8
			c0.6,1.8,0.7,3.7,0.9,5.5c0.8,7.2,0.8,14.4,0.1,21.6c-0.1,0.5,0,1-0.8,0.6C257,196.5,255.2,195.5,253.4,194.4z"/>
		<path class="st3" d="M245,212.2c1.5-2.5,3.1-4.9,4.2-7.6c2.2,2.4,3.8,5.2,5.7,7.8c1.1,1.5,1,2.7,0.4,4.2c-0.8,1.9-1.4,3.9-2.2,5.8
			c-0.1,0-0.2-0.1-0.3-0.1C250.7,218.5,248,215.2,245,212.2z"/>
		<path class="st3" d="M51.4,168.2c0.4,0.5,0.4,1.1,0.4,1.7c0.3,8,1.5,15.9,3.8,23.5c0.2,0.5,0.1,1.3,0.9,1.4c-1.7,1-3.4,2-5.1,3
			c-0.7,0.4-0.6-0.3-0.6-0.6c-0.4-3.2-0.6-6.5-0.7-9.8c-0.2-6.2,0.3-12.4,1.2-18.6C51.2,168.6,51.3,168.4,51.4,168.2z"/>
		<path class="st3" d="M60.4,205.3c1,2.1,2.1,4.1,3.7,5.8c-2.7,2.8-5.1,5.8-7.2,9.4c-1.1-2.2-1.8-4.3-2.5-6.4
			c-0.1-0.3,0-0.5,0.2-0.8C56.3,210.6,58.2,207.8,60.4,205.3z"/>
		<path class="st3" d="M41.3,132.5c6.4-4.2,13.6-6.8,20.9-8.9c0.4-0.1,0.8-0.1,1.2-0.2l0,0c-0.9,1.3-2.5,1.7-3.6,2.8
			c-0.2,0.2-0.5,0.4-0.5,0.7c-6,2-11.3,5.1-16.6,8.3c-0.5,0.3-0.8,0.4-1-0.3C41.4,134.1,41.2,133.3,41.3,132.5z"/>
		<path class="st3" d="M249.9,202.9c1.3-2,2-4.2,2.8-6.4c2.2,1.7,4,3.8,5.8,5.8c0.3,0.3,0.3,0.6,0.2,1c-0.4,1.9-0.8,3.9-1.2,6
			C255,207,252.5,204.9,249.9,202.9z"/>
		<path class="st3" d="M56.7,197.4c0.6,1.5,1.2,3,1.9,4.5c0.3,0.6,0.3,1.4,1.2,1.7c-2.1,1.7-4.2,3.3-6.1,5.1
			c-0.4,0.4-0.7,0.6-0.9-0.2c-0.3-1.7-0.7-3.4-1.1-5.1c-0.1-0.4-0.1-0.7,0.2-1C53.4,200.5,54.9,198.8,56.7,197.4z"/>
		<path class="st3" d="M260.9,162.3c2,0.7,3.5,2,5.4,2.4c0.4,0.1,0.3,0.4,0.2,0.7c-0.4,1.5-0.8,2.9-1.3,4.3
			c-0.3,0.9-1.3,1.2-2.1,1.6c-0.4,0.3-0.5-0.1-0.5-0.4C262.2,168.1,261.6,165.3,260.9,162.3z"/>
		<path class="st3" d="M43.2,164.3c2.3,0.6,3.5-1.2,5.4-1.7c-0.3,1.8-0.6,3.6-1,5.4c-0.1,0.7-0.7,0.4-1.1,0.2
			c-1-0.5-1.7-1.4-2.4-2.3C43.9,165.4,43.6,164.9,43.2,164.3z"/>
		<path class="st3" d="M74.2,132.5c0.8-0.4,1.6-0.6,2.5-0.7c-0.8,0.6-1.5,1.1-2.5,1.2C74.3,132.8,74.3,132.6,74.2,132.5z"/>
		<path class="st2" d="M245.2,124.6c0.1-0.1,0.2,0,0.2,0.1C245.4,124.6,245.3,124.6,245.2,124.6z"/>
		<path class="st1" d="M74.3,191.5c4.2-9,11.3-13.5,20.9-14.3c10.6-0.9,19.8,2.8,28.4,8.4c1,0.7,2,1.3,3,2c0.7,0.6,1.1,0.5,1.7-0.3
			c1.4-1.9,2.7-3.8,4.2-5.7c4.4-5.4,9.7-9.5,16.4-11.2c9.8-2.5,18.4,0,25.8,6.8c3.3,3,6,6.5,8.6,10.1c0.5,0.7,0.8,0.8,1.6,0.3
			c5.6-3.9,11.5-7.2,18-9.3c5.8-1.8,11.7-2.4,17.6-1.2c5.1,1,9.2,4,12.4,8.1c2.2,2.7,3.8,5.8,5,9.1c-1.1-1.5-2.2-3-3.3-4.5
			c-3.4-4.3-7.5-7.6-13-8.8c-6.7-1.5-13.2-0.9-19.7,1.5c-5.2,1.9-9.9,4.7-14.5,7.7c-0.3,0.2-0.7,0.4-1,0.7c-2.6,1.7-3.9,1.5-5.7-1
			c-2.4-3.2-4.8-6.4-7.6-9.2c-3.6-3.6-7.8-6.3-12.9-7.2c-7.6-1.4-14.2,0.8-20.1,5.6c-3.4,2.7-5.9,6.2-8.5,9.7
			c-0.4,0.6-0.9,1.2-1.4,1.8c-1.4,1.7-2.7,1.9-4.5,0.7c-2.5-1.6-4.9-3.3-7.5-4.7c-4.6-2.6-9.3-4.9-14.6-5.5
			c-6.7-0.7-13.3-0.6-19.6,2.2c-3.6,1.6-6.4,4.1-8.6,7.3c-0.2,0.3-0.4,0.6-0.6,0.9C74.7,191.5,74.6,191.5,74.3,191.5z"/>
		<path class="st1" d="M177.1,228.7c-3.8-2.1-8.1-2.9-12.1-4.4c-3.3-1.2-6.3-2.9-8.5-5.8c-0.3-0.3-0.4-0.7-0.9-0.1
			c-3.1,3.6-7.3,5.5-11.7,6.9c-2.6,0.8-5.3,1.6-7.9,2.4c-0.3,0.1-0.7,0.1-1.2,0.1c3-1.6,6-2.7,8.9-4.1c3.2-1.5,6.2-3.3,8.5-6.1
			c1-1.2,1.6-2.5,1.6-4.2c-0.1-3.1,0-6.2,0-9.4c0-0.8-0.2-1.2-0.9-1.6c-2.8-1.7-5.7-3.4-8.8-4.7c-1.3-0.5-1.5-1.3-1.4-2.5
			c0.5-4.8,3.5-8,8.5-8.5c3.1-0.4,6.2-0.3,9.2,0.2c4.5,0.8,7.5,4.4,7.5,8.9c0,0.9-0.3,1.4-1.1,1.8c-2.9,1.2-5.7,2.8-8.4,4.4
			c-0.8,0.4-1.1,0.9-1.1,1.9c0.1,2.3,0.1,4.6,0,6.8c-0.1,4.1,1.7,7.3,4.8,9.8c2.1,1.7,4.5,2.7,6.9,3.8c2.4,1.1,4.9,2.1,7.2,3.6
			C176.7,227.9,177.2,228,177.1,228.7z M163.6,191c-3.1-3.3-13.2-3.5-16-0.3C153,190.5,158.3,190.2,163.6,191z"/>
		<path class="st3" d="M174,157c0.1-1.9,1.5-3.6,3.1-5.2c1.8-1.8,3.9-3.2,6.4-3.8c2.3-0.5,4.5-0.4,6.3,1.3c2.1,1.9,2.3,4.6,0.4,6.7
			c-2.9,3.4-6.6,5.2-11,5.6C176.3,161.9,173.9,160.1,174,157z"/>
		<path class="st3" d="M131.1,161.5c-4.6-0.4-8.5-2.2-11.3-5.9c-1.1-1.5-1.4-3.1-0.6-4.8c0.9-1.9,2.5-2.8,4.6-3
			c4.5-0.3,7.8,2.1,10.6,5.3c0.6,0.8,1.1,1.7,1.5,2.6c1.4,3-1.4,6.1-4.1,5.8C131.6,161.5,131.3,161.5,131.1,161.5z"/>
		<path class="st1" d="M128.7,174.4c-10.9-4.8-21.9-9.6-32.9-14.4C104.4,156.5,122.4,161.8,128.7,174.4z"/>
		<path class="st1" d="M213.8,160c-11,4.8-22,9.6-33.1,14.5C182.9,165.1,205,155.4,213.8,160z"/>
		<path class="st1" d="M66.4,209.2c0.1-0.2,0.2-0.3,0.4-0.2c-0.1,0.1-0.2,0.2-0.2,0.3C66.6,209.3,66.5,209.3,66.4,209.2z"/>
		<polygon class="st1" points="238.1,194.7 238.2,194.7 238.2,194.8 		"/>
		<path class="st1" d="M64.2,200.7c0.1,0,0.2-0.1,0.3,0c0.1,0.1,0,0.2-0.1,0.2C64.3,200.8,64.2,200.8,64.2,200.7z"/>
		<path class="st1" d="M161.8,86.3c10,0,21.8,0.8,33.6,2.4c3.8,0.5,7.6,0.4,11.3,1.1c1.9,0.3,3.9,0.6,5.8,1.1c4.9,1.4,6.9,3.9,7.3,9
			c0.6,8,0.7,16.1,0.4,24.1c-0.1,2.7-0.5,5.3-2,7.7c-1.4,2.2-3.1,3.1-5.7,2.6c-7.1-1.3-14.3-2.5-21.5-3.5
			c-8.2-1.1-16.5-1.8-24.8-2.1c-9.8-0.4-19.5,0-29.2,0.8c-8.3,0.7-16.4,2.2-24.5,3.9c-4.8,1-9.5,2-14.4,2.6c-5.1,0.6-8-1.6-8.9-6.8
			c-0.5-3.1-0.7-6.3-0.8-9.4c-0.3-5.2-0.6-10.4-0.7-15.6c-0.1-5.7,2-8.3,7.5-9.7c5.5-1.5,11.1-2.6,16.7-3.7
			C127.8,87.7,143.7,86.3,161.8,86.3z M160.6,88.1c-7.6,0-14.4,0.3-21.2,0.8c-9.4,0.7-18.8,2-28.1,3.8c-5.5,1.1-11.1,2.1-16.5,3.7
			c-3.6,1.1-5,2.9-5.2,6.7c0,0.4,0,0.7,0,1.1c0.2,6.6,0.5,13.2,1.1,19.8c0.2,2,0.2,4.1,0.8,6.1c0.9,3,2.5,4.2,5.6,4.2
			c0.5,0,1,0,1.4-0.1c4.1-0.6,8.2-1.3,12.3-2.2c13-3,26.2-4.7,39.5-5.1c18.6-0.6,37,1.1,55.3,4.4c2.2,0.4,4.4,0.8,6.6,1.2
			c2.8,0.5,4-0.1,5.2-2.8c0.4-1,0.7-2,0.9-3.1c0.4-2.5,0.3-5,0.4-7.5c0.2-6.5-0.1-13-0.6-19.5c-0.3-3.6-2.1-5.8-5.6-6.8
			c-2.2-0.6-4.5-0.9-6.7-1.3c-3.7-0.6-7.5-0.5-11.2-1C182.9,88.8,171.4,88.1,160.6,88.1z"/>
		<path class="st3" d="M63.3,123.3c0.1-0.1,0.2-0.1,0.4-0.2c0,0,0,0.1,0.1,0.1C63.6,123.3,63.5,123.3,63.3,123.3
			C63.4,123.3,63.3,123.3,63.3,123.3z"/>
		<path class="st1" d="M75.8,107.3c-0.1-0.1-0.1-0.2,0.1-0.2c0.2,0,0.3,0,0.4,0.2C76.1,107.3,76,107.3,75.8,107.3z"/>
		<path class="st3" d="M77.3,131.6c-0.1,0-0.1,0-0.1,0c0,0,0,0,0-0.1C77.2,131.6,77.3,131.6,77.3,131.6z"/>
		<path class="st2" d="M163.6,191c-5.4-0.8-10.7-0.5-16-0.3C150.5,187.5,160.6,187.7,163.6,191z"/>
		<path class="st0" d="M160.6,88.1c10.8,0.1,22.3,0.8,33.8,2.3c3.7,0.5,7.5,0.4,11.2,1c2.2,0.4,4.5,0.7,6.7,1.3
			c3.5,0.9,5.3,3.2,5.6,6.8c0.5,6.5,0.8,13,0.6,19.5c-0.1,2.5,0,5-0.4,7.5c-0.2,1.1-0.4,2.1-0.9,3.1c-1.2,2.7-2.4,3.3-5.2,2.8
			c-2.2-0.4-4.4-0.8-6.6-1.2c-18.3-3.3-36.7-5-55.3-4.4c-13.3,0.4-26.5,2.1-39.5,5.1c-4,0.9-8.1,1.6-12.3,2.2
			c-0.5,0.1-1,0.1-1.4,0.1c-3.1,0.1-4.7-1.2-5.6-4.2c-0.6-2-0.6-4-0.8-6.1c-0.6-6.6-0.8-13.2-1.1-19.8c0-0.4,0-0.7,0-1.1
			c0.3-3.8,1.6-5.6,5.2-6.7c5.4-1.6,10.9-2.7,16.5-3.7c9.3-1.8,18.7-3,28.1-3.8C146.2,88.3,153,88.1,160.6,88.1z M118.9,115.2
			c1.5-0.7,2.6-2.1,4.2-2.6c0.4-0.1,0.4-0.5,0.1-0.6c-1-0.6-1.7-1.5-2.9-1.7c-0.3,0-0.3-0.1-0.3-0.3c0-1.7-1.3-3.3-0.3-5
			c0.1-0.1,0-0.4-0.1-0.4c-0.9-0.5-1.8-1-2.8-1.3c-0.6-0.2-0.8,0.7-1.1,1.1c-0.4,0.5-0.8,1-1.4,0.8c-0.6-0.2-0.4-0.9-0.5-1.4
			c-0.1-0.2,0-0.4,0.1-0.6c0.3-0.6-0.1-0.7-0.5-0.7c-0.4,0-0.7,0.1-1.1,0.1c-0.7,0.1-1.5-0.1-2,0.3c-0.6,0.5,0.1,1.3,0.2,2
			c0.1,0.9-0.2,1.2-1,1.1c-1-0.1-1.9-0.2-2.9-0.3c-0.6-0.1-0.9-0.1-0.7,0.7c0.7,3.4,1.3,6.8,1.9,10.2c0.3,1.8,0.3,1.7-1.5,2.4
			c-1.1,0.5,0,1.1,0.1,1.6c0.1,0.6,0.3,1.4,0.9,1.6c0.6,0.2,0.6-0.8,1.1-1c0.3-0.1,0.5-0.4,0.8-0.5c1.7-1.2,3.4-2.5,5.2-3.7
			c0.2-0.2,0.6-0.2,0.5-0.8c-1,0.4-2,0.8-3,1.1c-0.3,0.1-0.7,0.4-0.8-0.1c-0.3-1.3-0.5-2.7-0.7-4c0-0.1,0-0.2,0.1-0.2
			c0.8-0.4,1.7-0.4,2.6-0.5c0.5-0.1,0.6,0.5,0.7,0.8c1.6,3.6,4.4,5.4,8.1,6.2c0.6,0.1,0.8,0,0.9-0.6c0.1-0.8,0.4-1.6,1-2.2
			c0.2-0.2,0.6-0.3,0.4-0.6c-0.1-0.3-0.5-0.2-0.7-0.2C121.9,115.9,120.4,115.7,118.9,115.2z M167.5,116.6c0.2,0,0.3,0.1,0.4,0.1
			c3.7-1.1,7.2-2.4,9.9-5.4c1.4-1.6,2.9-3.2,4-5c0.4-0.7,1.7-0.8,1.5-1.8c-0.2-0.8-1.2-1.3-1.7-2c-0.3-0.5-0.7-0.6-1.2-0.4
			c-0.9,0.4-1.8,0.4-2.7,0.4c-0.3,0-0.6,0.1-0.6-0.3c-0.4-1.7-2-1.9-3.2-2.4c-0.5-0.2-0.8,0.1-0.5,0.5c0.6,0.8,0.2,1.4-0.2,2.1
			c-1.2,2.4-3,4.3-5.2,5.9c-0.3,0.2-0.8,0.3-0.8,0.8c0.1,0.1,0.1,0.1,0.2,0.1c0.1,0,0.2,0,0.4,0c2.5-0.8,5-1.8,6.9-3.8
			c0.4-0.4,0.8-0.6,1.3-0.6c0.7,0,1.4-0.1,2.1-0.2c0.2,0,0.5-0.1,0.7,0.1c0.1,0.2,0,0.4-0.1,0.5c-2.7,4.4-5.6,8.6-10.5,10.9
			C167.8,116.2,167.6,116.2,167.5,116.6z M103.3,131.5c34.8-8.5,69.7-7.8,104.7-1.6C173,122.4,138.1,121.8,103.3,131.5z
			 M134.5,107.8c1.2,0.4,1.9,1.1,2.6,1.7c0.6,0.6,1.2,1.2,1.8,1.8c0.6,0.6,1.4,0.9,2.1,0.2c0.7-0.6,0.7-1.5,0.3-2.3
			c-0.4-0.6-0.9-1.1-1.5-1.5c-1-0.6-2.1-0.9-3.2-1.1c-2.6-0.5-2.6-0.5-2.3-3.1c0-0.4,0.1-0.7,0.2-1.1c0.1-0.6-0.1-1-0.7-1.3
			c-1.2-0.7-2.6-0.8-3.9-0.8c-0.2,0-0.4,0.1-0.5,0.3c0,0.2,0.1,0.4,0.3,0.4c1.1,0.3,1.3,1.2,1.4,2.2c0.4,4,0.8,8,0.8,12.1
			c0,1.6,1,2.6,2.2,2.5c1.1-0.1,1.5-1,1.2-2.8C135.1,112.7,134.9,110.3,134.5,107.8z M190.3,118.4c1.1,0,2-0.8,3-1.2
			c5-1.8,8.5-5.4,11.5-9.6c0.2-0.2,0.6-0.5,0.3-0.8c-0.4-0.4-0.6,0.2-0.8,0.4c-3.9,3.5-8.4,5.7-13.3,7.4c-0.9,0.3-1.9,0.5-2.7-0.2
			c-0.2-0.1-0.3-0.3-0.5-0.1c-0.2,0.1-0.1,0.4-0.1,0.6c0.3,0.9,0.5,1.8,1.1,2.6C189.1,118,189.5,118.4,190.3,118.4z M161.2,109
			c0.7,0,1.8,0.3,1.9-0.9c0.1-1.1-0.7-1.6-1.7-1.9c-0.6-0.2-1.3-0.1-1.9,0c-3.5,0.3-7.1,0.5-10.6,0.6c-0.8,0-1.5,0-2-0.7
			c-0.1-0.2-0.3-0.3-0.5-0.2c-0.3,0.2-0.1,0.4-0.1,0.6c0.3,0.9,0.7,1.8,1.4,2.5c0.8,0.8,1.6,1.3,2.7,0.5c0.4-0.3,0.8-0.3,1.3-0.3
			C154.8,108.9,157.9,108.7,161.2,109z M94.7,104c-0.1,1.7,1.2,3,2.8,3.1c1.7,0.1,3.1-1.2,3.2-2.9c0.1-1.7-1.3-3.1-2.9-3.1
			C96.1,101,94.7,102.3,94.7,104z M214.1,100.5c0-1.7-1.3-3-2.9-3c-1.7,0-3.1,1.4-3.1,3c0,1.6,1.4,3,3,3
			C212.8,103.6,214.1,102.2,214.1,100.5z M98.8,123.3c-1.6,0-3,1.3-3,2.9c-0.1,1.7,1.3,3.1,3,3.1c1.7,0,3-1.3,3-3
			C101.7,124.7,100.5,123.4,98.8,123.3z M215.2,122.8c0-1.6-1.4-3-3-3c-1.7,0-3,1.4-3,3c0,1.7,1.3,3,2.9,3
			C213.9,125.8,215.2,124.5,215.2,122.8z M195.3,106.5c-0.1-0.5-0.1-0.9-0.4-1.3c-1.3-1.5-3.1-1.8-4.9-2.2c-0.1,0-0.2,0.1-0.3,0.1
			c-0.1,0.2,0,0.3,0.1,0.4c1.3,0.8,1.7,2.2,2.1,3.5c0.3,0.9,0.9,1.4,1.9,1.3C194.9,108.2,195.2,107.4,195.3,106.5z"/>
		<path class="st1" d="M118.9,115.2c1.5,0.5,3,0.6,4.5,0.7c0.3,0,0.6-0.1,0.7,0.2c0.1,0.3-0.3,0.5-0.4,0.6c-0.6,0.6-1,1.4-1,2.2
			c-0.1,0.7-0.3,0.8-0.9,0.6c-3.7-0.8-6.6-2.7-8.1-6.2c-0.1-0.3-0.2-0.9-0.7-0.8c-0.9,0.1-1.7,0.2-2.6,0.5c0,0-0.1,0.1-0.1,0.2
			c0.2,1.3,0.4,2.7,0.7,4c0.1,0.5,0.5,0.2,0.8,0.1c1-0.4,2-0.7,3-1.1c0.2,0.6-0.2,0.6-0.5,0.8c-1.7,1.2-3.4,2.5-5.2,3.7
			c-0.3,0.2-0.5,0.4-0.8,0.5c-0.6,0.2-0.5,1.2-1.1,1c-0.6-0.2-0.7-1-0.9-1.6c-0.1-0.5-1.2-1.1-0.1-1.6c1.7-0.7,1.8-0.6,1.5-2.4
			c-0.6-3.4-1.2-6.8-1.9-10.2c-0.1-0.8,0.1-0.8,0.7-0.7c0.9,0.1,1.9,0.2,2.9,0.3c0.8,0,1.1-0.2,1-1.1c-0.1-0.7-0.8-1.5-0.2-2
			c0.4-0.4,1.3-0.2,2-0.3c0.4,0,0.7-0.1,1.1-0.1c0.5,0,0.8,0,0.5,0.7c-0.1,0.2-0.1,0.4-0.1,0.6c0.1,0.5-0.1,1.2,0.5,1.4
			c0.7,0.2,1.1-0.3,1.4-0.8c0.3-0.4,0.5-1.3,1.1-1.1c1,0.3,1.9,0.8,2.8,1.3c0.1,0,0.1,0.3,0.1,0.4c-1.1,1.7,0.3,3.4,0.3,5
			c0,0.2,0.1,0.2,0.3,0.3c1.2,0.2,1.9,1.1,2.9,1.7c0.3,0.2,0.3,0.5-0.1,0.6C121.5,113.2,120.4,114.5,118.9,115.2z M119.1,111.9
			c-0.7,0.2-1.5,0.6-2.1,0.4c-1.1-0.5-2,0-3.1,0.1c0.3,0.7,0.9,1.1,1.4,1.5c1.9,1.4,2.1,1.3,3.4-0.6c0.2-0.4,0.4-0.8,0.6-1.2
			c0-0.1,0.1-0.2,0.1-0.2C119.3,111.9,119.2,111.9,119.1,111.9z M116.4,110.8c-0.1-0.3-0.2-0.5-0.2-0.8c0-1.1-0.4-1.3-1.5-1.1
			c-1.4,0.3-2.8,0.5-4.2,0.8c-0.6,0.1-1,0.3-0.8,1c0.1,0.4,0.1,0.8,0.2,1.2c0.1,0.4,0.2,0.6,0.7,0.5c1.7-0.3,3.4-0.6,5.2-0.9
			C116.2,111.4,116.5,111.3,116.4,110.8z M115.7,107.6c0-0.3-0.1-0.7-0.2-1.1c-0.1-0.7-0.3-0.9-1.1-0.7c-1.6,0.4-3.1,0.6-4.7,0.8
			c-0.8,0.1-0.7,0.7-0.5,1.2c0.2,0.5-0.3,1.6,0.9,1.4c1.7-0.3,3.5-0.6,5.2-0.9C115.7,108.2,115.9,108,115.7,107.6z"/>
		<path class="st1" d="M167.5,116.6c0-0.4,0.3-0.5,0.5-0.6c4.8-2.3,7.8-6.5,10.5-10.9c0.1-0.2,0.3-0.3,0.1-0.5
			c-0.2-0.2-0.4-0.1-0.7-0.1c-0.7,0.1-1.4,0.2-2.1,0.2c-0.6,0-0.9,0.2-1.3,0.6c-1.9,1.9-4.3,2.9-6.9,3.8c-0.1,0-0.2,0-0.4,0
			c-0.1,0-0.1-0.1-0.2-0.1c0.1-0.5,0.5-0.6,0.8-0.8c2.2-1.6,4-3.5,5.2-5.9c0.4-0.7,0.7-1.3,0.2-2.1c-0.3-0.4,0-0.7,0.5-0.5
			c1.3,0.5,2.9,0.7,3.2,2.4c0.1,0.4,0.4,0.3,0.6,0.3c0.9-0.1,1.8-0.1,2.7-0.4c0.5-0.2,0.9-0.1,1.2,0.4c0.5,0.7,1.5,1.2,1.7,2
			c0.2,1-1,1.2-1.5,1.8c-1.2,1.8-2.6,3.4-4,5c-2.6,3-6.2,4.3-9.9,5.4C167.8,116.7,167.7,116.6,167.5,116.6z"/>
		<path class="st1" d="M103.3,131.5c34.8-9.7,69.7-9,104.7-1.6C173,123.7,138.1,123,103.3,131.5z"/>
		<path class="st1" d="M134.5,107.8c0.3,2.6,0.6,4.9,1,7.3c0.3,1.8,0,2.6-1.2,2.8c-1.3,0.1-2.3-0.9-2.2-2.5c0.1-4-0.4-8.1-0.8-12.1
			c-0.1-1-0.3-1.9-1.4-2.2c-0.2-0.1-0.4-0.2-0.3-0.4c0-0.2,0.3-0.3,0.5-0.3c1.4,0,2.7,0.1,3.9,0.8c0.5,0.3,0.7,0.7,0.7,1.3
			c-0.1,0.4-0.1,0.7-0.2,1.1c-0.3,2.6-0.3,2.7,2.3,3.1c1.1,0.2,2.2,0.5,3.2,1.1c0.6,0.4,1.2,0.8,1.5,1.5c0.5,0.8,0.4,1.7-0.3,2.3
			c-0.7,0.7-1.5,0.3-2.1-0.2c-0.6-0.5-1.2-1.2-1.8-1.8C136.4,108.8,135.7,108.2,134.5,107.8z"/>
		<path class="st1" d="M190.3,118.4c-0.7,0-1.2-0.4-1.6-0.9c-0.5-0.8-0.8-1.7-1.1-2.6c-0.1-0.2-0.1-0.4,0.1-0.6
			c0.2-0.1,0.4,0,0.5,0.1c0.8,0.8,1.8,0.5,2.7,0.2c4.9-1.6,9.4-3.9,13.3-7.4c0.2-0.2,0.4-0.8,0.8-0.4c0.3,0.3-0.1,0.6-0.3,0.8
			c-3,4.2-6.5,7.7-11.5,9.6C192.2,117.5,191.4,118.3,190.3,118.4z"/>
		<path class="st1" d="M161.2,109c-3.2-0.3-6.4-0.1-9.5,0.1c-0.4,0-0.9,0.1-1.3,0.3c-1.1,0.8-1.9,0.3-2.7-0.5
			c-0.7-0.7-1.1-1.5-1.4-2.5c-0.1-0.2-0.2-0.5,0.1-0.6c0.2-0.1,0.4,0,0.5,0.2c0.5,0.7,1.3,0.7,2,0.7c3.6,0,7.1-0.3,10.6-0.6
			c0.6,0,1.3-0.2,1.9,0c0.9,0.3,1.8,0.8,1.7,1.9C162.9,109.3,161.9,109,161.2,109z"/>
		<path class="st1" d="M94.7,104c0.1-1.6,1.4-2.9,3-2.9c1.6,0,3,1.5,2.9,3.1c-0.1,1.7-1.5,2.9-3.2,2.9C95.8,107,94.6,105.6,94.7,104
			z M98.7,105.5c0.9-0.1,1.3-0.6,1.2-1.8c-0.1-1.1-0.8-1.6-1.9-1.4C99.5,103.3,99.6,104.1,98.7,105.5z"/>
		<path class="st1" d="M214.1,100.5c0,1.7-1.3,3.1-3,3c-1.6,0-3-1.4-3-3c0-1.6,1.4-3,3.1-3C212.8,97.5,214.1,98.9,214.1,100.5z
			 M210.9,98.5c1.9,1,2.2,1.8,1.3,3.4c0.8-0.1,1.2-0.6,1.2-1.6C213.3,99.2,212.4,98.5,210.9,98.5z"/>
		<path class="st1" d="M98.8,123.3c1.6,0,2.9,1.3,2.9,3c0,1.7-1.3,3-3,3c-1.7,0-3-1.4-3-3.1C95.8,124.6,97.2,123.3,98.8,123.3z
			 M98.4,124.4c2.2,0.9,2.5,2.2,1,3.7c1,0,1.7-0.9,1.7-1.9C100.9,124.9,100,124.2,98.4,124.4z"/>
		<path class="st1" d="M215.2,122.8c0,1.7-1.3,3-3,3c-1.7,0-2.9-1.3-2.9-3c0-1.7,1.4-3.1,3-3C213.9,119.8,215.2,121.1,215.2,122.8z
			 M211.9,120.8c0.9,0.4,1.7,0.7,1.9,1.8c0.1,1-0.5,1.6-1.3,2.2c1.5-0.3,2.1-1.1,2-2.3C214.3,121.3,213.4,120.7,211.9,120.8z"/>
		<path class="st1" d="M195.3,106.5c-0.1,0.9-0.4,1.7-1.5,1.9c-0.9,0.1-1.6-0.3-1.9-1.3c-0.4-1.3-0.8-2.7-2.1-3.5
			c-0.1-0.1-0.2-0.2-0.1-0.4c0.1-0.1,0.2-0.2,0.3-0.1c1.8,0.4,3.6,0.6,4.9,2.2C195.2,105.6,195.2,106,195.3,106.5z"/>
		<path class="st4" d="M116.4,110.8c0.1,0.4-0.2,0.6-0.5,0.6c-1.7,0.3-3.4,0.6-5.2,0.9c-0.5,0.1-0.6-0.1-0.7-0.5
			c-0.1-0.4-0.1-0.8-0.2-1.2c-0.2-0.7,0.2-0.9,0.8-1c1.4-0.2,2.8-0.4,4.2-0.8c1-0.2,1.5,0,1.5,1.1
			C116.2,110.3,116.3,110.6,116.4,110.8z"/>
		<path class="st4" d="M115.7,107.6c0.1,0.4,0,0.6-0.4,0.7c-1.7,0.3-3.5,0.7-5.2,0.9c-1.2,0.2-0.7-0.9-0.9-1.4
			c-0.2-0.4-0.3-1,0.5-1.2c1.6-0.2,3.2-0.5,4.7-0.8c0.7-0.2,1,0,1.1,0.7C115.6,106.9,115.7,107.3,115.7,107.6z"/>
		<path class="st4" d="M119.3,112.1c-0.2,0.4-0.4,0.8-0.6,1.2c-1.3,1.9-1.5,2-3.4,0.6c-0.5-0.4-1-0.7-1.4-1.5c1.1-0.1,2-0.6,3.1-0.1
			c0.5,0.2,1.4-0.2,2.1-0.4C119.2,112,119.3,112,119.3,112.1z"/>
		<path class="st4" d="M119.1,111.9c0.1,0,0.2,0,0.3,0c0,0.1-0.1,0.2-0.1,0.2C119.3,112,119.2,112,119.1,111.9z"/>
		<path class="st3" d="M98.7,105.5c1-1.5,0.8-2.2-0.7-3.2c1.1-0.2,1.8,0.3,1.9,1.4C100,104.9,99.6,105.5,98.7,105.5z"/>
		<path class="st3" d="M210.9,98.5c1.5-0.1,2.4,0.6,2.5,1.8c0.1,1-0.3,1.5-1.2,1.6C213.1,100.4,212.9,99.5,210.9,98.5z"/>
		<path class="st3" d="M98.4,124.4c1.6-0.2,2.5,0.6,2.6,1.8c0.1,1.1-0.6,1.9-1.7,1.9C100.9,126.6,100.6,125.3,98.4,124.4z"/>
		<path class="st3" d="M211.9,120.8c1.5-0.1,2.4,0.5,2.6,1.7c0.2,1.1-0.5,2-2,2.3c0.8-0.6,1.5-1.2,1.3-2.2
			C213.6,121.5,212.8,121.2,211.9,120.8z"/>
	</g>
</g>
</svg>
